# xmcd CD database file
#
# Track frame offsets:
#	150
#	12420
#	26399
#	38426
#	53066
#	66417
#	80238
#	93925
#	106595
#	119895
#	131050
#	142203
#	153969
#	167575
#
# Disc length: 2458 seconds
#
# Revision: 0
# Processed by: cddbd v1.4PL0 Copyright (c) Steve Scherf et al.
# Submitted via: CDex 1.50beta10
#
DISCID=ba09980e
DTITLE=Charlie Parker, Dizzy Gillespie, and Miles Davis - Riff Raff
DYEAR=2000
DGENRE=Jazz
TTITLE0=Scrapple From The Apple-Parker and Davis
TTITLE1=Riff raff-Parker and Davis
TTITLE2=Ornithology-Parker and Davis
TTITLE3=Don't Blame Me-Parker and Davis
TTITLE4=Cool Blues-Parker and Davis
TTITLE5=Be Bop-Parker and Davis
TTITLE6=How High the Moon-Parker and Gillespie
TTITLE7=Slow Boat to China-Parker and Gillespie
TTITLE8=Relaxing at Camerillo-Parker and Gillespie
TTITLE9=Big Foot-Parker and Gillespie
TTITLE10=The Gypsy-Parker and Gillespie
TTITLE11=Carvin' the Bird-Parker and Gillespie
TTITLE12=Bird Feathers-Parker and Gillespie
TTITLE13=Barbados-Parker and Gillespie
EXTD=YEAR: 2000
EXTT0=
EXTT1=
EXTT2=
EXTT3=
EXTT4=
EXTT5=
EXTT6=
EXTT7=
EXTT8=
EXTT9=
EXTT10=
EXTT11=
EXTT12=
EXTT13=
PLAYORDER=
